<svg height="624.54" width="1218.33" xmlns="http://www.w3.org/2000/svg" xmlns:xlink="http://www.w3.org/1999/xlink"><defs><path id="a" d="m1034 0-138-382h-563l-137 382h-196l510-1349h217l501 1349zm-187-531c-77-225-157-447-231-674-69 231-154 451-232 674z"/><path id="b" d="m865-914c-3-187-2-380-2-570h180v1261c0 76 1 155 6 223h-172c-8-49-9-116-10-174h-5c-61 130-154 200-332 200-135 0-234-46-297-139s-95-232-95-419c0-377 131-566 392-566 176 0 271 63 335 184zm-286-51c-222 0-255 197-255 427 0 229 31 425 253 425 237 0 286-195 286-441 0-238-52-411-284-411"/><path id="c" d="m839-1102c70 0 148 7 206 17v167c-112-18-268-36-363 15-129 69-208 203-208 395v508h-180c-10-367 32-789-52-1082h171c21 75 41 161 48 250h5c67-152 152-270 373-270"/><path id="d" d="m617-1102c355 0 481 238 477 599h-772c5 222 84 388 301 388 144 0 244-59 284-166l158 45c-63 164-211 256-442 256-342 0-490-220-490-568 0-346 151-554 484-554zm291 461c-18-192-90-328-289-328-194 0-287 128-295 328z"/><path id="e" d="m873-819c-18-114-119-146-250-146-163 0-245 50-245 151 0 151 170 148 294 185 182 54 388 94 388 320 0 240-189 325-439 329-245 4-410-69-454-268l159-31c24 133 136 168 295 165 144-2 270-31 270-171 0-164-195-160-331-202-167-52-350-87-350-299 0-218 173-315 413-313 220 2 373 77 412 260"/><path id="f" d="m631 20c-350 0-501-215-501-562 0-355 162-560 502-560 250 0 399 118 446 323l-192 14c-23-124-109-196-262-196-242 0-305 171-305 415 1 245 61 427 304 427 151 0 248-77 267-215l190 12c-41 215-197 342-449 342"/><path id="g" d="m682 16c-209 0-323-80-324-285v-671h-168v-142h170l58-282h120v282h432v142h-432v652c2 114 60 155 182 155 106 0 209-16 297-34v137c-96 26-211 46-335 46"/><path id="h" d="m615-1102c343 0 484 203 482 560-1 347-147 562-488 562-336 0-475-219-479-562-4-349 156-560 485-560zm-8 989c240 0 301-180 301-429 0-245-55-427-290-427-236 0-299 181-299 427 0 243 61 429 288 429"/><path id="i" d="m622-1349c296 4 497 117 497 404 0 282-193 424-485 431h-281v514h-191v-1349zm-15 684c195-3 320-88 320-277 0-184-129-255-328-254h-246v531z"/><path id="j" d="m1000-272c3 95 12 159 101 161 21 0 41-3 59-7v112c-44 10-86 16-139 16-141 2-191-84-197-217h-6c-70 131-170 227-372 227-207 0-318-120-318-322 0-266 194-348 454-354l236-4c12-191-40-305-222-305-140 0-220 47-232 172l-188-17c33-204 181-292 423-292 255 0 401 118 401 364zm-683-27c0 109 63 184 175 182 166-3 259-96 306-217 24-65 20-120 20-200-232 7-501-28-501 235"/><path id="k" d="m912-211c-10-84-18-177-18-274v-864h172v1349h-230l-520-1130c7 79 16 167 16 254v876h-170v-1349h222"/><path id="l" d="m904-1102c199 0 220 177 220 381v721h-168v-686c-3-114 0-215-60-264-70-33-125-4-158 71-26 56-39 140-39 252v627h-168v-686c-3-114-1-215-61-264-78-41-136 24-157 84-24 69-39 159-39 259v607h-169c-3-360 6-732-6-1082h149c6 50 3 123 8 175 36-100 83-195 216-195 135 0 166 79 196 196 42-105 93-196 236-196"/><path id="m" d="m496 0v-299h235v299zm0-783v-299h235v299z"/><path id="n" d="m706-1102c241 0 344 136 343 381v721h-181v-695c1-168-57-273-220-268-190 6-283 138-283 336v627h-180c-3-360 6-732-6-1082h170c4 54 7 126 8 185h3c63-121 164-204 346-205"/><g id="o"><use transform="scale(.00770399)" xlink:href="#a"/><use transform="matrix(.00770399 0 0 .00770399 9.468207 0)" xlink:href="#f"/><use transform="matrix(.00770399 0 0 .00770399 18.936415 0)" xlink:href="#f"/><use transform="matrix(.00770399 0 0 .00770399 28.404622 0)" xlink:href="#h"/><path d="m528 20c-247 0-343-132-343-381v-721h180v686c-4 177 45 284 224 277 194-8 279-136 279-336v-627h181c3 360-6 732 6 1082h-170c-4-54-7-126-8-185h-3c-65 121-160 205-346 205" transform="matrix(.00770399 0 0 .00770399 37.87283 0)"/><use transform="matrix(.00770399 0 0 .00770399 47.341037 0)" xlink:href="#n"/><use transform="matrix(.00770399 0 0 .00770399 56.809245 0)" xlink:href="#g"/></g><g id="p"><use transform="scale(.00770399)" xlink:href="#k"/><use transform="matrix(.00770399 0 0 .00770399 9.468207 0)" xlink:href="#j"/><use transform="matrix(.00770399 0 0 .00770399 18.936415 0)" xlink:href="#l"/><use transform="matrix(.00770399 0 0 .00770399 28.404622 0)" xlink:href="#d"/></g><g id="q"><use transform="scale(.00770399)" xlink:href="#a"/><use transform="matrix(.00770399 0 0 .00770399 9.468207 0)" xlink:href="#b"/><use transform="matrix(.00770399 0 0 .00770399 18.936415 0)" xlink:href="#b"/><use transform="matrix(.00770399 0 0 .00770399 28.404622 0)" xlink:href="#c"/><use transform="matrix(.00770399 0 0 .00770399 37.87283 0)" xlink:href="#d"/><use transform="matrix(.00770399 0 0 .00770399 47.341037 0)" xlink:href="#e"/><use transform="matrix(.00770399 0 0 .00770399 56.809245 0)" xlink:href="#e"/><use transform="matrix(.00770399 0 0 .00770399 66.277452 0)" xlink:href="#m"/></g><g id="r"><use transform="scale(.00770399)" xlink:href="#a"/><use transform="matrix(.00770399 0 0 .00770399 9.468207 0)" xlink:href="#b"/><use transform="matrix(.00770399 0 0 .00770399 18.936415 0)" xlink:href="#b"/><use transform="matrix(.00770399 0 0 .00770399 28.404622 0)" xlink:href="#c"/><use transform="matrix(.00770399 0 0 .00770399 37.87283 0)" xlink:href="#d"/><use transform="matrix(.00770399 0 0 .00770399 47.341037 0)" xlink:href="#e"/><use transform="matrix(.00770399 0 0 .00770399 56.809245 0)" xlink:href="#e"/></g><path id="s" d="m30-248c87 1 191-15 191 75 0 78-77 80-158 76v97h-33zm33 125c57 0 124 11 124-50 0-59-68-47-124-48z"/><path id="t" d="m114-163c-78-16-53 91-57 163h-32l-1-190h30c1 12-1 29 2 39 6-27 23-49 58-41z"/><path id="u" d="m100-194c62-1 85 37 85 99 1 63-27 99-86 99s-83-39-84-99c0-66 28-99 85-99zm-1 174c44 1 53-31 53-75 0-43-8-75-51-75s-53 32-53 75 10 74 51 75"/><path id="v" d="m96-169c-40 0-48 33-48 73s9 75 48 75c24 0 41-14 43-38l32 2c-6 37-31 61-74 61-59 0-76-41-82-99-10-93 101-131 147-64 4 7 5 14 7 22l-32 3c-4-21-16-35-41-35"/><path id="w" d="m100-194c63 0 86 42 84 106h-135c0 40 14 67 53 68 26 1 43-12 49-29l28 8c-11 28-37 45-77 45-58 0-88-37-87-100 1-61 26-98 85-98zm52 81c6-60-76-77-97-28-3 7-6 17-6 28z"/><path id="x" d="m135-143c-3-34-86-38-87 0 15 53 115 12 119 90s-150 74-157 8l28-5c4 36 97 45 98 0-10-56-113-15-118-90-4-57 82-63 122-42 12 7 21 19 24 35"/><path id="y" d="m33-154v-36h34v36zm0 154v-36h34v36z"/><g id="z"><use transform="scale(.03765432)" xlink:href="#s"/><use transform="matrix(.03765432 0 0 .03765432 9.037037 0)" xlink:href="#t"/><use transform="matrix(.03765432 0 0 .03765432 13.517901 0)" xlink:href="#u"/><use transform="matrix(.03765432 0 0 .03765432 21.048765 0)" xlink:href="#v"/><use transform="matrix(.03765432 0 0 .03765432 27.826543 0)" xlink:href="#w"/><use transform="matrix(.03765432 0 0 .03765432 35.357407 0)" xlink:href="#x"/><use transform="matrix(.03765432 0 0 .03765432 42.135185 0)" xlink:href="#x"/><use transform="matrix(.03765432 0 0 .03765432 48.912963 0)" xlink:href="#y"/></g><g id="A"><use transform="scale(.03765432)" xlink:href="#s"/><use transform="matrix(.03765432 0 0 .03765432 9.037037 0)" xlink:href="#t"/><use transform="matrix(.03765432 0 0 .03765432 13.517901 0)" xlink:href="#u"/><use transform="matrix(.03765432 0 0 .03765432 21.048765 0)" xlink:href="#v"/><use transform="matrix(.03765432 0 0 .03765432 27.826543 0)" xlink:href="#w"/><use transform="matrix(.03765432 0 0 .03765432 35.357407 0)" xlink:href="#x"/><use transform="matrix(.03765432 0 0 .03765432 42.135185 0)" xlink:href="#x"/></g><path id="B" d="m117-194c89-4 53 116 60 194h-32v-121c0-31-8-49-39-48-72 2-44 102-49 169h-32l-1-190h30c1 10-1 24 2 32 11-22 29-35 61-36"/><path id="C" d="m141-36c-15 21-31 41-68 40-36-1-58-21-58-57-1-64 63-63 125-63 3-35-9-54-41-54-24 1-41 7-42 31l-33-3c5-37 33-52 76-52 45 0 72 20 72 64v82c-1 20 7 32 28 27v20c-31 9-61-2-59-35zm-93-17c0 20 12 33 32 33 41-3 63-29 60-74-43 2-92-5-92 41"/><g id="D"><use transform="scale(.03765432)" xlink:href="#B"/><use transform="matrix(.03765432 0 0 .03765432 7.530864 0)" xlink:href="#C"/><path d="m210-169c-67 3-38 105-44 169h-31v-121c0-29-5-50-35-48-66 4-38 104-44 169h-31l-1-190h30c1 10-1 24 2 32 10-44 99-50 107 0 11-21 27-35 58-36 85-2 47 119 55 194h-31v-121c0-29-5-49-35-48" transform="matrix(.03765432 0 0 .03765432 15.061728 0)"/><use transform="matrix(.03765432 0 0 .03765432 26.32037 0)" xlink:href="#w"/></g><path id="E" d="m185-189c-5-48-123-54-124 2 14 75 158 14 163 119 3 78-121 87-175 55-17-10-28-26-33-46l33-7c5 56 141 63 141-1 0-78-155-14-162-118-5-82 145-84 179-34 5 7 8 16 11 25"/><path id="F" d="m59-47c-2 24 18 29 38 22v24c-33 10-70 5-70-39v-127h-22v-23h24l9-43h21v43h35v23h-35z"/><g id="G"><use transform="scale(.03765432)" xlink:href="#E"/><use transform="matrix(.03765432 0 0 .03765432 9.037037 0)" xlink:href="#F"/><use transform="matrix(.03765432 0 0 .03765432 12.802469 0)" xlink:href="#C"/><use transform="matrix(.03765432 0 0 .03765432 20.333333 0)" xlink:href="#t"/><use transform="matrix(.03765432 0 0 .03765432 24.814198 0)" xlink:href="#F"/></g><g id="H"><use transform="scale(.03765432)" xlink:href="#C"/><use transform="matrix(.03765432 0 0 .03765432 7.530864 0)" xlink:href="#F"/><use transform="matrix(.03765432 0 0 .03765432 11.296296 0)" xlink:href="#y"/></g><g id="I"><use transform="scale(.03765432)" xlink:href="#E"/><use transform="matrix(.03765432 0 0 .03765432 9.037037 0)" xlink:href="#F"/><use transform="matrix(.03765432 0 0 .03765432 12.802469 0)" xlink:href="#C"/><use transform="matrix(.03765432 0 0 .03765432 20.333333 0)" xlink:href="#t"/><use transform="matrix(.03765432 0 0 .03765432 24.814198 0)" xlink:href="#F"/></g><path id="J" d="m115-194c53 0 69 39 70 98 0 66-23 100-70 100-31-1-49-11-59-34l-2 30h-31l1-261h32v101c10-23 28-34 59-34zm-8 174c40 0 45-34 45-75 0-40-5-75-45-74-42 0-51 32-51 76 0 43 10 73 51 73"/><path id="K" d="m24 0v-261h32v261z"/><path id="L" d="m143 0-64-87-23 19v68h-32v-261h32v163l83-92h37l-77 82 82 108z"/><g id="M"><use transform="scale(.03765432)" xlink:href="#J"/><use transform="matrix(.03765432 0 0 .03765432 7.530864 0)" xlink:href="#K"/><use transform="matrix(.03765432 0 0 .03765432 10.505556 0)" xlink:href="#u"/><use transform="matrix(.03765432 0 0 .03765432 18.03642 0)" xlink:href="#v"/><use transform="matrix(.03765432 0 0 .03765432 24.814198 0)" xlink:href="#L"/></g><path id="N" d="m30 0v-248h187v28h-154v79h144v27h-144v87h162v27z"/><path id="O" d="m85-194c31 0 48 13 60 33l-1-100h32l1 261h-30c-2-10 0-23-3-31-10 23-28 35-59 35-53 0-69-39-70-98 0-66 23-100 70-100zm9 24c-40 0-46 34-46 75 0 40 6 74 45 74 42 0 51-32 51-76 0-42-9-74-50-73"/><g id="P"><use transform="scale(.03765432)" xlink:href="#N"/><use transform="matrix(.03765432 0 0 .03765432 9.037037 0)" xlink:href="#B"/><use transform="matrix(.03765432 0 0 .03765432 16.567901 0)" xlink:href="#O"/></g><g id="Q"><use transform="scale(.03765432)" xlink:href="#N"/><use transform="matrix(.03765432 0 0 .03765432 9.037037 0)" xlink:href="#B"/><use transform="matrix(.03765432 0 0 .03765432 16.567901 0)" xlink:href="#O"/></g><g id="R"><use transform="scale(.03765432)" xlink:href="#J"/><use transform="matrix(.03765432 0 0 .03765432 7.530864 0)" xlink:href="#K"/><use transform="matrix(.03765432 0 0 .03765432 10.505556 0)" xlink:href="#u"/><use transform="matrix(.03765432 0 0 .03765432 18.03642 0)" xlink:href="#v"/><use transform="matrix(.03765432 0 0 .03765432 24.814198 0)" xlink:href="#L"/></g><path id="S" d="m30 0v-248h33v221h125v27z" fill="#333"/><path id="T" d="m100-194c62-1 85 37 85 99 1 63-27 99-86 99s-83-39-84-99c0-66 28-99 85-99zm-1 174c44 1 53-31 53-75 0-43-8-75-51-75s-53 32-53 75 10 74 51 75" fill="#333"/><path id="U" d="m177-190c-10 125 41 293-110 261-23-6-38-20-44-43l32-5c15 47 100 32 89-28v-30c-11 21-29 36-61 36-54 0-68-41-68-96 0-56 16-97 71-98 29-1 48 16 59 35 1-10 0-23 2-32zm-83 168c36 0 50-32 50-73 0-42-14-75-50-75-39 0-46 34-46 75s6 73 46 73" fill="#333"/><path id="V" d="m24-231v-30h32v30zm0 231v-190h32v190z" fill="#333"/><path id="W" d="m117-194c89-4 53 116 60 194h-32v-121c0-31-8-49-39-48-72 2-44 102-49 169h-32l-1-190h30c1 10-1 24 2 32 11-22 29-35 61-36" fill="#333"/><path id="X" d="m205 0-28-72h-113l-28 72h-35l101-248h38l99 248zm-38-99-47-123c-12 45-31 82-46 123z" fill="#333"/><path id="Y" d="m96-169c-40 0-48 33-48 73s9 75 48 75c24 0 41-14 43-38l32 2c-6 37-31 61-74 61-59 0-76-41-82-99-10-93 101-131 147-64 4 7 5 14 7 22l-32 3c-4-21-16-35-41-35" fill="#333"/><path id="Z" d="m84 4c-89 4-54-116-61-194h32v120c0 31 7 50 39 49 72-2 45-101 50-169h31l1 190h-30c-1-10 1-25-2-33-11 22-28 36-60 37" fill="#333"/><path id="aa" d="m59-47c-2 24 18 29 38 22v24c-33 10-70 5-70-39v-127h-22v-23h24l9-43h21v43h35v23h-35z" fill="#333"/><path id="ab" d="m100-194c63 0 86 42 84 106h-135c0 40 14 67 53 68 26 1 43-12 49-29l28 8c-11 28-37 45-77 45-58 0-88-37-87-100 1-61 26-98 85-98zm52 81c6-60-76-77-97-28-3 7-6 17-6 28z" fill="#333"/><path id="ac" d="m137 0h-34l-101-248h35l83 218 83-218h36" fill="#333"/><path id="ad" d="m135-143c-3-34-86-38-87 0 15 53 115 12 119 90s-150 74-157 8l28-5c4 36 97 45 98 0-10-56-113-15-118-90-4-57 82-63 122-42 12 7 21 19 24 35" fill="#333"/><g id="ae"><use transform="scale(.02469136)" xlink:href="#ac"/><use transform="matrix(.02469136 0 0 .02469136 5.432099 0)" xlink:href="#T"/><use transform="matrix(.02469136 0 0 .02469136 10.37037 0)" xlink:href="#aa"/><use transform="matrix(.02469136 0 0 .02469136 12.839506 0)" xlink:href="#ab"/><use transform="matrix(.02469136 0 0 .02469136 17.777778 0)" xlink:href="#ad"/></g><path id="af" d="m115-194c55 1 70 41 70 98s-16 98-70 100c-31 0-49-13-60-34l1 105h-32l-1-265h31l2 30c10-21 28-34 59-34zm-8 174c40 0 45-34 45-75s-6-73-45-74c-42 0-51 32-51 76 0 43 10 73 51 73" fill="#333"/><path id="ag" d="m210-169c-67 3-38 105-44 169h-31v-121c0-29-5-50-35-48-66 4-38 104-44 169h-31l-1-190h30c1 10-1 24 2 32 10-44 99-50 107 0 11-21 27-35 58-36 85-2 47 119 55 194h-31v-121c0-29-5-49-35-48" fill="#333"/><path id="ah" d="m106-169c-72 0-44 102-49 169h-32v-261h32l-1 103c12-21 28-36 61-36 89 0 53 116 60 194h-32v-121c2-32-8-49-39-48" fill="#333"/><path id="ai" d="m85-194c31 0 48 13 60 33l-1-100h32l1 261h-30c-2-10 0-23-3-31-10 23-28 35-59 35-53 0-69-39-70-98 0-66 23-100 70-100zm9 24c-40 0-46 34-46 75 0 40 6 74 45 74 42 0 51-32 51-76 0-42-9-74-50-73" fill="#333"/><path id="aj" d="m141-36c-15 21-31 41-68 40-36-1-58-21-58-57-1-64 63-63 125-63 3-35-9-54-41-54-24 1-41 7-42 31l-33-3c5-37 33-52 76-52 45 0 72 20 72 64v82c-1 20 7 32 28 27v20c-31 9-61-2-59-35zm-93-17c0 20 12 33 32 33 41-3 63-29 60-74-43 2-92-5-92 41" fill="#333"/><g id="ak"><path d="m185-189c-5-48-123-54-124 2 14 75 158 14 163 119 3 78-121 87-175 55-17-10-28-26-33-46l33-7c5 56 141 63 141-1 0-78-155-14-162-118-5-82 145-84 179-34 5 7 8 16 11 25" fill="#333" transform="scale(.02469136)"/><use transform="matrix(.02469136 0 0 .02469136 5.925926 0)" xlink:href="#aa"/><use transform="matrix(.02469136 0 0 .02469136 8.395062 0)" xlink:href="#aj"/><use transform="matrix(.02469136 0 0 .02469136 13.333333 0)" xlink:href="#aa"/><use transform="matrix(.02469136 0 0 .02469136 15.802469 0)" xlink:href="#Z"/><use transform="matrix(.02469136 0 0 .02469136 20.740741 0)" xlink:href="#ad"/></g><g id="al"><use transform="scale(.00770399)" xlink:href="#i"/><use transform="matrix(.00770399 0 0 .00770399 9.468207 0)" xlink:href="#c"/><use transform="matrix(.00770399 0 0 .00770399 18.936415 0)" xlink:href="#h"/><use transform="matrix(.00770399 0 0 .00770399 28.404622 0)" xlink:href="#f"/><use transform="matrix(.00770399 0 0 .00770399 37.87283 0)" xlink:href="#d"/><use transform="matrix(.00770399 0 0 .00770399 47.341037 0)" xlink:href="#e"/><use transform="matrix(.00770399 0 0 .00770399 56.809245 0)" xlink:href="#e"/></g><path id="am" d="m24-231v-30h32v30zm0 231v-190h32v190z"/><g id="an"><path d="m127-220v220h-34v-220h-85v-28h204v28z" transform="scale(.03765432)"/><use transform="matrix(.03765432 0 0 .03765432 7.75679 0)" xlink:href="#am"/><use transform="matrix(.03765432 0 0 .03765432 10.731481 0)" xlink:href="#F"/><use transform="matrix(.03765432 0 0 .03765432 14.496914 0)" xlink:href="#K"/><use transform="matrix(.03765432 0 0 .03765432 17.471605 0)" xlink:href="#w"/><use transform="matrix(.03765432 0 0 .03765432 25.002469 0)" xlink:href="#y"/></g><g id="ao"><path d="m140-251c81 0 123 46 123 126 0 72-35 117-100 126 7 30 30 48 69 40v23c-55 16-95-15-103-61-73-6-112-51-112-128 0-80 42-126 123-126zm0 227c63 0 89-41 89-101s-29-99-89-99c-61 0-89 39-89 99s28 100 89 101" transform="scale(.03765432)"/><path d="m84 4c-89 4-54-116-61-194h32v120c0 31 7 50 39 49 72-2 45-101 50-169h31l1 190h-30c-1-10 1-25-2-33-11 22-28 36-60 37" transform="matrix(.03765432 0 0 .03765432 10.54321 0)"/><use transform="matrix(.03765432 0 0 .03765432 18.074074 0)" xlink:href="#w"/><use transform="matrix(.03765432 0 0 .03765432 25.604938 0)" xlink:href="#x"/><use transform="matrix(.03765432 0 0 .03765432 32.382716 0)" xlink:href="#F"/><use transform="matrix(.03765432 0 0 .03765432 36.148148 0)" xlink:href="#am"/><use transform="matrix(.03765432 0 0 .03765432 39.12284 0)" xlink:href="#u"/><use transform="matrix(.03765432 0 0 .03765432 46.653704 0)" xlink:href="#B"/></g><g id="ap"><use transform="scale(.03765432)" xlink:href="#F"/><use transform="matrix(.03765432 0 0 .03765432 3.765432 0)" xlink:href="#am"/><use transform="matrix(.03765432 0 0 .03765432 6.740123 0)" xlink:href="#F"/><use transform="matrix(.03765432 0 0 .03765432 10.505556 0)" xlink:href="#K"/><use transform="matrix(.03765432 0 0 .03765432 13.480247 0)" xlink:href="#w"/></g><path id="aq" d="m115-194c55 1 70 41 70 98s-16 98-70 100c-31 0-49-13-60-34l1 105h-32l-1-265h31l2 30c10-21 28-34 59-34zm-8 174c40 0 45-34 45-75s-6-73-45-74c-42 0-51 32-51 76 0 43 10 73 51 73"/><g id="ar"><path d="m30-248c118-7 216 8 213 122-3 78-43 126-121 126h-92zm33 221c89 8 146-16 146-99s-60-101-146-95z" transform="scale(.03765432)"/><use transform="matrix(.03765432 0 0 .03765432 9.752469 0)" xlink:href="#w"/><use transform="matrix(.03765432 0 0 .03765432 17.283333 0)" xlink:href="#x"/><use transform="matrix(.03765432 0 0 .03765432 24.061111 0)" xlink:href="#v"/><use transform="matrix(.03765432 0 0 .03765432 30.838889 0)" xlink:href="#t"/><use transform="matrix(.03765432 0 0 .03765432 35.319753 0)" xlink:href="#am"/><use transform="matrix(.03765432 0 0 .03765432 38.294444 0)" xlink:href="#aq"/><use transform="matrix(.03765432 0 0 .03765432 45.825309 0)" xlink:href="#F"/><use transform="matrix(.03765432 0 0 .03765432 49.590741 0)" xlink:href="#am"/><use transform="matrix(.03765432 0 0 .03765432 52.565432 0)" xlink:href="#u"/><use transform="matrix(.03765432 0 0 .03765432 60.096296 0)" xlink:href="#B"/><use transform="matrix(.03765432 0 0 .03765432 67.62716 0)" xlink:href="#y"/></g><g id="as"><use transform="scale(.03765432)" xlink:href="#O"/><use transform="matrix(.03765432 0 0 .03765432 7.530864 0)" xlink:href="#w"/><use transform="matrix(.03765432 0 0 .03765432 15.061728 0)" xlink:href="#x"/><use transform="matrix(.03765432 0 0 .03765432 21.839506 0)" xlink:href="#v"/><use transform="matrix(.03765432 0 0 .03765432 28.617284 0)" xlink:href="#t"/><use transform="matrix(.03765432 0 0 .03765432 33.098148 0)" xlink:href="#am"/><use transform="matrix(.03765432 0 0 .03765432 36.07284 0)" xlink:href="#aq"/><use transform="matrix(.03765432 0 0 .03765432 43.603704 0)" xlink:href="#F"/><use transform="matrix(.03765432 0 0 .03765432 47.369136 0)" xlink:href="#am"/><use transform="matrix(.03765432 0 0 .03765432 50.343827 0)" xlink:href="#u"/><use transform="matrix(.03765432 0 0 .03765432 57.874691 0)" xlink:href="#B"/></g><g id="at"><path d="m212-179c-10-28-35-45-73-45-59 0-87 40-87 99 0 60 29 101 89 101 43 0 62-24 78-52l27 14c-18 38-51 66-107 66-80 0-117-50-121-129-6-104 99-153 187-111 19 9 31 26 39 46" transform="scale(.03765432)"/><path d="m106-169c-72 0-44 102-49 169h-32v-261h32l-1 103c12-21 28-36 61-36 89 0 53 116 60 194h-32v-121c2-32-8-49-39-48" transform="matrix(.03765432 0 0 .03765432 9.752469 0)"/><use transform="matrix(.03765432 0 0 .03765432 17.283333 0)" xlink:href="#u"/><use transform="matrix(.03765432 0 0 .03765432 24.814198 0)" xlink:href="#am"/><use transform="matrix(.03765432 0 0 .03765432 27.788889 0)" xlink:href="#v"/><use transform="matrix(.03765432 0 0 .03765432 34.566667 0)" xlink:href="#w"/><use transform="matrix(.03765432 0 0 .03765432 42.097531 0)" xlink:href="#x"/><use transform="matrix(.03765432 0 0 .03765432 48.875309 0)" xlink:href="#y"/></g><path id="au" d="m127-220v220h-34v-220h-85v-28h204v28z" fill="#333"/><path id="av" d="m24 0v-261h32v261z" fill="#333"/><g id="aw"><use transform="scale(.03703704)" xlink:href="#au"/><use transform="matrix(.03703704 0 0 .03703704 7.62963 0)" xlink:href="#V"/><use transform="matrix(.03703704 0 0 .03703704 10.555556 0)" xlink:href="#aa"/><use transform="matrix(.03703704 0 0 .03703704 14.259259 0)" xlink:href="#av"/><use transform="matrix(.03703704 0 0 .03703704 17.185185 0)" xlink:href="#ab"/><path d="m33-154v-36h34v36zm0 154v-36h34v36z" fill="#333" transform="matrix(.03703704 0 0 .03703704 24.592593 0)"/></g><g id="ax"><use transform="scale(.03703704)" xlink:href="#au"/><use transform="matrix(.03703704 0 0 .03703704 7.62963 0)" xlink:href="#V"/><use transform="matrix(.03703704 0 0 .03703704 10.555556 0)" xlink:href="#aa"/><use transform="matrix(.03703704 0 0 .03703704 14.259259 0)" xlink:href="#av"/><use transform="matrix(.03703704 0 0 .03703704 17.185185 0)" xlink:href="#ab"/></g><g id="ay"><use transform="scale(.03703704)" xlink:href="#Y"/><use transform="matrix(.03703704 0 0 .03703704 6.666667 0)" xlink:href="#ah"/><use transform="matrix(.03703704 0 0 .03703704 14.074074 0)" xlink:href="#T"/><use transform="matrix(.03703704 0 0 .03703704 21.481481 0)" xlink:href="#V"/><use transform="matrix(.03703704 0 0 .03703704 24.407407 0)" xlink:href="#Y"/><use transform="matrix(.03703704 0 0 .03703704 31.074074 0)" xlink:href="#ab"/></g><g id="az"><use transform="scale(.04938272)" xlink:href="#af"/><use transform="matrix(.04938272 0 0 .04938272 9.876543 0)" xlink:href="#aj"/><use transform="matrix(.04938272 0 0 .04938272 19.753086 0)" xlink:href="#U"/><use transform="matrix(.04938272 0 0 .04938272 29.62963 0)" xlink:href="#ab"/></g><path id="aA" d="m114-163c-78-16-53 91-57 163h-32l-1-190h30c1 12-1 29 2 39 6-27 23-49 58-41z" fill="#333"/></defs><g transform="translate(-41 -20)"><path d="m61 44.17c0-2.2 1.8-4 4-4h339c2.2 0 4 1.8 4 4v516.37c0 2.2-1.8 4-4 4h-339c-2.2 0-4-1.8-4-4z" fill="#fff" stroke="#666" stroke-width="2"/><path d="m61 66.5h347" fill="none" stroke="#666" stroke-width="2"/><path d="m61.03 67.5h-1.03v-2h1.03m347.97 2h-1.03v-2h1.03" fill="#666"/><g stroke="#666" stroke-width="2"><path d="m80.33 51.43c0 2.94-2.38 5.33-5.33 5.33s-5.33-2.4-5.33-5.33c0-2.95 2.38-5.34 5.33-5.34s5.33 2.38 5.33 5.33zm18.5 0c0 2.94-2.38 5.33-5.33 5.33s-5.33-2.4-5.33-5.33c0-2.95 2.38-5.34 5.33-5.34s5.33 2.38 5.33 5.33zm18.5 0c0 2.94-2.38 5.33-5.33 5.33s-5.33-2.4-5.33-5.33c0-2.95 2.38-5.34 5.33-5.34s5.33 2.38 5.33 5.33z" fill="#d2d3d5"/><path d="m475.17 47.1c0-2.2 1.8-4 4-4h339c2.2 0 4 1.8 4 4v513.44c0 2.2-1.8 4-4 4h-339c-2.2 0-4-1.8-4-4z" fill="#fff"/><path d="m477.34 66.34 344.83 3.04m-344.81-3.04h-1.02" fill="none"/></g><path d="m823.17 68.4v2l-1.04-.02.02-2" fill="#666"/><path d="m497.67 53.25c0 2.95-2.4 5.33-5.33 5.33-2.95 0-5.34-2.38-5.34-5.33 0-2.94 2.4-5.33 5.34-5.33s5.33 2.4 5.33 5.33zm18.5 0c0 2.95-2.4 5.33-5.33 5.33-2.95 0-5.34-2.38-5.34-5.33 0-2.94 2.4-5.33 5.34-5.33s5.33 2.4 5.33 5.33zm18.5 0c0 2.95-2.4 5.33-5.33 5.33-2.95 0-5.34-2.38-5.34-5.33 0-2.94 2.4-5.33 5.34-5.33s5.33 2.4 5.33 5.33z" fill="#d2d3d5" stroke="#666" stroke-width="2"/><path d="m892.34 44c0-2.2 1.8-4 4-4h339c2.2 0 4 1.8 4 4v516.54c0 2.2-1.8 4-4 4h-339c-2.2 0-4-1.8-4-4z" fill="#fff" stroke="#666" stroke-width="2"/><path d="m894.34 64.34 345 1.93m-344.98-1.93h-1.02" fill="none" stroke="#666" stroke-width="2"/><path d="m1240.33 65.28v2h-1.03v-2" fill="#666"/><path d="m911.67 51.25c0 2.95-2.4 5.33-5.33 5.33-2.95 0-5.34-2.38-5.34-5.33 0-2.94 2.4-5.33 5.34-5.33s5.33 2.4 5.33 5.33zm18.5 0c0 2.95-2.4 5.33-5.33 5.33-2.95 0-5.34-2.38-5.34-5.33 0-2.94 2.4-5.33 5.34-5.33s5.33 2.4 5.33 5.33zm18.5 0c0 2.95-2.4 5.33-5.33 5.33-2.95 0-5.34-2.38-5.34-5.33 0-2.94 2.4-5.33 5.34-5.33s5.33 2.4 5.33 5.33z" fill="#d2d3d5" stroke="#666" stroke-width="2"/><path d="m123.75 181.2c0-2.2 1.8-4 4-4h213.5c2.2 0 4 1.8 4 4v183.25c0 2.2-1.8 4-4 4h-213.5c-2.2 0-4-1.8-4-4z" fill="#fff" stroke="#666" stroke-width="2"/><path d="m199.02 204.54h70.95v18.62h-70.95z" fill="#a5a7aa"/><path d="m139.68 243.74c0-2.2 1.8-4 4-4h181.64c2.2 0 4 1.8 4 4v14.53c0 2.2-1.8 4-4 4h-181.64c-2.2 0-4-1.8-4-4z" fill="#fff" stroke="#666" stroke-width="2"/><g transform="translate(144.678536 259.131745)"><use transform="scale(.00878906)" xlink:href="#a"/><use transform="matrix(.00878906 0 0 .00878906 10.801758 0)" xlink:href="#b"/><use transform="matrix(.00878906 0 0 .00878906 21.603516 0)" xlink:href="#b"/><use transform="matrix(.00878906 0 0 .00878906 32.405273 0)" xlink:href="#c"/><use transform="matrix(.00878906 0 0 .00878906 43.207031 0)" xlink:href="#d"/><use transform="matrix(.00878906 0 0 .00878906 54.008789 0)" xlink:href="#e"/><use transform="matrix(.00878906 0 0 .00878906 64.810547 0)" xlink:href="#e"/></g><g transform="translate(231.092599 259.131745)"><use transform="scale(.00878906)" xlink:href="#e"/><use transform="matrix(.00878906 0 0 .00878906 10.801758 0)" xlink:href="#d"/><path d="m736-142h380v142h-982v-142h422v-1200h-289v-142h469z" transform="matrix(.00878906 0 0 .00878906 21.603516 0)"/><use transform="matrix(.00878906 0 0 .00878906 32.405273 0)" xlink:href="#d"/><use transform="matrix(.00878906 0 0 .00878906 43.207031 0)" xlink:href="#f"/><use transform="matrix(.00878906 0 0 .00878906 54.008789 0)" xlink:href="#g"/><use transform="matrix(.00878906 0 0 .00878906 64.810547 0)" xlink:href="#h"/><use transform="matrix(.00878906 0 0 .00878906 75.612305 0)" xlink:href="#c"/></g><path d="m139.68 275.83c0-2.2 1.8-4 4-4h181.64c2.2 0 4 1.8 4 4v14.53c0 2.2-1.8 4-4 4h-181.64c-2.2 0-4-1.8-4-4z" fill="#fff" stroke="#666" stroke-width="2"/><g transform="translate(144.678536 291.23107)"><use transform="scale(.00878906)" xlink:href="#i"/><use transform="matrix(.00878906 0 0 .00878906 10.801758 0)" xlink:href="#j"/><use transform="matrix(.00878906 0 0 .00878906 21.603516 0)" xlink:href="#e"/><use transform="matrix(.00878906 0 0 .00878906 32.405273 0)" xlink:href="#e"/><path d="m1018 0h-204c-67-224-138-444-200-673-62 231-138 449-207 673h-203l-183-1082h178c43 310 105 601 126 933 54-225 128-425 193-638h193c63 212 134 415 185 638 22-336 90-622 136-933h176" transform="matrix(.00878906 0 0 .00878906 43.207031 0)"/><use transform="matrix(.00878906 0 0 .00878906 54.008789 0)" xlink:href="#h"/><use transform="matrix(.00878906 0 0 .00878906 64.810547 0)" xlink:href="#c"/><use transform="matrix(.00878906 0 0 .00878906 75.612305 0)" xlink:href="#b"/></g><path d="m487 106.22c0-2.2 1.8-4 4-4h245.33c2.2 0 4 1.8 4 4v49.73c0 2.2-1.8 4-4 4h-245.33c-2.2 0-4-1.8-4-4z" fill="#fff" stroke="#666" stroke-width="2"/><g transform="translate(492.002195 128.838555)"><use transform="scale(.00770399)" xlink:href="#k"/><use transform="matrix(.00770399 0 0 .00770399 9.468207 0)" xlink:href="#j"/><use transform="matrix(.00770399 0 0 .00770399 18.936415 0)" xlink:href="#l"/><use transform="matrix(.00770399 0 0 .00770399 28.404622 0)" xlink:href="#d"/><use transform="matrix(.00770399 0 0 .00770399 37.87283 0)" xlink:href="#m"/></g><use transform="translate(548.81144 128.838555)" xlink:href="#o"/><use transform="translate(624.5571 128.838555)" xlink:href="#p"/><use transform="translate(492.002195 144.616333)" xlink:href="#q"/><use transform="translate(577.216062 144.616333)" xlink:href="#o"/><use transform="translate(652.961722 144.616333)" xlink:href="#r"/><path d="m487 272.44c0-2.2 1.8-4 4-4h305.33c2.2 0 4 1.8 4 4v50.8c0 2.2-1.8 4-4 4h-305.33c-2.2 0-4-1.8-4-4z" fill="#fff" stroke="#666" stroke-width="2"/><use transform="translate(492.002195 284.284439)" xlink:href="#z"/><use transform="translate(548.446022 284.284439)" xlink:href="#A"/><use transform="translate(601.124417 284.284439)" xlink:href="#D"/><use transform="translate(492.002195 300.551105)" xlink:href="#G"/><use transform="translate(524.347257 300.551105)" xlink:href="#H"/><use transform="translate(543.174417 300.551105)" xlink:href="#I"/><use transform="translate(575.519479 300.551105)" xlink:href="#M"/><use transform="translate(492.002195 316.817772)" xlink:href="#P"/><use transform="translate(519.866393 316.817772)" xlink:href="#H"/><use transform="translate(538.693553 316.817772)" xlink:href="#Q"/><use transform="translate(566.557751 316.817772)" xlink:href="#R"/><path d="m117.5 564.54h240v60h-240z" fill="none"/><g transform="translate(213.326063 599.382483)"><use transform="scale(.04938272)" xlink:href="#S"/><use transform="matrix(.04938272 0 0 .04938272 9.876543 0)" xlink:href="#T"/><use transform="matrix(.04938272 0 0 .04938272 19.753086 0)" xlink:href="#U"/></g><g transform="translate(247.893964 599.382483)"><use transform="scale(.04938272)" xlink:href="#V"/><use transform="matrix(.04938272 0 0 .04938272 3.901235 0)" xlink:href="#W"/></g><path d="m828.65 131.32h38.72v-10.26l18.48 20.53-18.48 20.52v-10.26h-38.72zm-415.15 1.83h38.7v-10.27l18.48 20.53-18.48 20.55v-10.27h-38.7z" fill="#bcbdbf"/><path d="m180.22 305.34h108.55v25.82h-108.55z" fill="#a5a7aa"/><path d="m814.5 131.08c0 15.95-13.44 28.87-30 28.87-16.58 0-30-12.92-30-28.87 0-15.94 13.42-28.86 30-28.86 16.56 0 30 12.92 30 28.86z" fill="#fff" stroke="#666" stroke-width="2"/><g transform="translate(764.431695 128.108304)"><use transform="scale(.0308642)" xlink:href="#X"/><use transform="matrix(.0308642 0 0 .0308642 7.407407 0)" xlink:href="#Y"/><use transform="matrix(.0308642 0 0 .0308642 12.962963 0)" xlink:href="#Y"/><use transform="matrix(.0308642 0 0 .0308642 18.518519 0)" xlink:href="#T"/><use transform="matrix(.0308642 0 0 .0308642 24.691358 0)" xlink:href="#Z"/><use transform="matrix(.0308642 0 0 .0308642 30.864198 0)" xlink:href="#W"/><use transform="matrix(.0308642 0 0 .0308642 37.037037 0)" xlink:href="#aa"/></g><g transform="translate(772.147744 141.441637)"><use transform="scale(.0308642)" xlink:href="#S"/><use transform="matrix(.0308642 0 0 .0308642 6.17284 0)" xlink:href="#T"/><use transform="matrix(.0308642 0 0 .0308642 12.345679 0)" xlink:href="#U"/><use transform="matrix(.0308642 0 0 .0308642 18.518519 0)" xlink:href="#T"/></g><path d="m487 177.2h94.83v22.7h-94.83z" fill="#fff" stroke="#5e5e5e"/><g transform="translate(510.070096 190.940575)"><use transform="scale(.02469136)" xlink:href="#X"/><use transform="matrix(.02469136 0 0 .02469136 5.925926 0)" xlink:href="#Y"/><use transform="matrix(.02469136 0 0 .02469136 10.37037 0)" xlink:href="#aa"/><use transform="matrix(.02469136 0 0 .02469136 12.839506 0)" xlink:href="#V"/><path d="m108 0h-38l-69-190h34l54 165 56-165h34" fill="#333" transform="matrix(.02469136 0 0 .02469136 14.790123 0)"/><use transform="matrix(.02469136 0 0 .02469136 19.234568 0)" xlink:href="#ab"/></g><use transform="translate(536.712072 190.940575)" xlink:href="#ae"/><path d="m580.33 177.2h94.83v22.7h-94.83z" fill="#fff" stroke="#5e5e5e"/><g transform="translate(595.524691 190.940575)"><path d="m232-93c-1 65-40 97-104 97-61 0-100-32-100-94v-158h33c8 89-33 224 67 224 102 0 64-133 71-224h33z" fill="#333" transform="scale(.02469136)"/><use transform="matrix(.02469136 0 0 .02469136 6.395062 0)" xlink:href="#af"/><use transform="matrix(.02469136 0 0 .02469136 11.333333 0)" xlink:href="#Y"/><use transform="matrix(.02469136 0 0 .02469136 15.777778 0)" xlink:href="#T"/><use transform="matrix(.02469136 0 0 .02469136 20.716049 0)" xlink:href="#ag"/><use transform="matrix(.02469136 0 0 .02469136 28.098765 0)" xlink:href="#V"/><use transform="matrix(.02469136 0 0 .02469136 30.049383 0)" xlink:href="#W"/><use transform="matrix(.02469136 0 0 .02469136 34.987654 0)" xlink:href="#U"/></g><use transform="translate(637.919753 190.940575)" xlink:href="#ae"/><path d="m675.16 177.2h94.84v22.7h-94.84z" fill="#fff" stroke="#5e5e5e"/><g transform="translate(693.565706 190.940575)"><path d="m63-220v92h138v28h-138v100h-33v-248h175v28z" fill="#333" transform="scale(.02469136)"/><use transform="matrix(.02469136 0 0 .02469136 5.407407 0)" xlink:href="#V"/><use transform="matrix(.02469136 0 0 .02469136 7.358025 0)" xlink:href="#W"/><use transform="matrix(.02469136 0 0 .02469136 12.296296 0)" xlink:href="#V"/><use transform="matrix(.02469136 0 0 .02469136 14.246914 0)" xlink:href="#ad"/><use transform="matrix(.02469136 0 0 .02469136 18.691358 0)" xlink:href="#ah"/><use transform="matrix(.02469136 0 0 .02469136 23.62963 0)" xlink:href="#ab"/><use transform="matrix(.02469136 0 0 .02469136 28.567901 0)" xlink:href="#ai"/></g><use transform="translate(729.541015 190.940575)" xlink:href="#ae"/><path d="m487 229.16c0-3.3 2.7-6 6-6h284c3.32 0 6 2.7 6 6v24.74c0 3.3-2.68 6-6 6h-284c-3.3 0-6-2.7-6-6z" fill="none"/><g transform="translate(492.002195 247.629841)"><use transform="scale(.0617284)" xlink:href="#ac"/><use transform="matrix(.0617284 0 0 .0617284 13.580247 0)" xlink:href="#T"/><use transform="matrix(.0617284 0 0 .0617284 25.925926 0)" xlink:href="#aa"/><use transform="matrix(.0617284 0 0 .0617284 32.098765 0)" xlink:href="#ab"/></g><g transform="translate(542.619479 247.629841)"><use transform="scale(.0617284)" xlink:href="#S"/><use transform="matrix(.0617284 0 0 .0617284 12.345679 0)" xlink:href="#V"/><use transform="matrix(.0617284 0 0 .0617284 17.222222 0)" xlink:href="#ad"/><use transform="matrix(.0617284 0 0 .0617284 28.333333 0)" xlink:href="#aa"/></g><path d="m700.33 278.36c0-2.2 1.8-4 4-4h82.34c2.2 0 4 1.8 4 4v12c0 2.2-1.8 4-4 4h-82.34c-2.2 0-4-1.8-4-4z" fill="#fff" stroke="#666" stroke-width="2"/><use transform="translate(733.240741 286.475674)" xlink:href="#ak"/><path d="m487.34 341.7c0-2.22 1.8-4 4-4h305.33c2.2 0 4 1.78 4 4v50.8c0 2.2-1.8 4-4 4h-305.33c-2.2 0-4-1.8-4-4z" fill="#fff" stroke="#666" stroke-width="2"/><use transform="translate(492.336626 353.532072)" xlink:href="#z"/><use transform="translate(548.780453 353.532072)" xlink:href="#A"/><use transform="translate(601.458848 353.532072)" xlink:href="#D"/><use transform="translate(492.336626 369.798738)" xlink:href="#G"/><use transform="translate(524.681688 369.798738)" xlink:href="#H"/><use transform="translate(543.508848 369.798738)" xlink:href="#I"/><use transform="translate(575.85391 369.798738)" xlink:href="#M"/><use transform="translate(492.336626 386.065405)" xlink:href="#P"/><use transform="translate(520.200823 386.065405)" xlink:href="#H"/><use transform="translate(539.027984 386.065405)" xlink:href="#Q"/><use transform="translate(566.892181 386.065405)" xlink:href="#R"/><path d="m700.67 347.6c0-2.2 1.8-4 4-4h82.33c2.2 0 4 1.8 4 4v12c0 2.22-1.8 4-4 4h-82.33c-2.2 0-4-1.78-4-4z" fill="#fff" stroke="#666" stroke-width="2"/><use transform="translate(733.575172 355.723307)" xlink:href="#ak"/><path d="m487 410.94c0-2.2 1.8-4 4-4h305.33c2.2 0 4 1.8 4 4v50.8c0 2.2-1.8 4-4 4h-305.33c-2.2 0-4-1.8-4-4z" fill="#fff" stroke="#666" stroke-width="2"/><use transform="translate(492.002195 422.779705)" xlink:href="#z"/><use transform="translate(548.446022 422.779705)" xlink:href="#A"/><use transform="translate(601.124417 422.779705)" xlink:href="#D"/><use transform="translate(492.002195 439.046372)" xlink:href="#G"/><use transform="translate(524.347257 439.046372)" xlink:href="#H"/><use transform="translate(543.174417 439.046372)" xlink:href="#I"/><use transform="translate(575.519479 439.046372)" xlink:href="#M"/><use transform="translate(492.002195 455.313038)" xlink:href="#P"/><use transform="translate(519.866393 455.313038)" xlink:href="#H"/><use transform="translate(538.693553 455.313038)" xlink:href="#Q"/><use transform="translate(566.557751 455.313038)" xlink:href="#R"/><path d="m700.33 416.86c0-2.2 1.8-4 4-4h82.34c2.2 0 4 1.8 4 4v12c0 2.2-1.8 4-4 4h-82.34c-2.2 0-4-1.8-4-4z" fill="#fff" stroke="#666" stroke-width="2"/><use transform="translate(733.240741 424.970941)" xlink:href="#ak"/><path d="m911.5 163.7c0-2.22 1.8-4 4-4h300.67c2.2 0 4 1.78 4 4v49.72c0 2.2-1.8 4-4 4h-300.67c-2.2 0-4-1.8-4-4z" fill="#fff" stroke="#666" stroke-width="2"/><g transform="translate(916.502195 186.308218)"><use transform="scale(.00770399)" xlink:href="#i"/><use transform="matrix(.00770399 0 0 .00770399 9.468207 0)" xlink:href="#c"/><use transform="matrix(.00770399 0 0 .00770399 18.936415 0)" xlink:href="#h"/><use transform="matrix(.00770399 0 0 .00770399 28.404622 0)" xlink:href="#f"/><use transform="matrix(.00770399 0 0 .00770399 37.87283 0)" xlink:href="#d"/><use transform="matrix(.00770399 0 0 .00770399 47.341037 0)" xlink:href="#e"/><use transform="matrix(.00770399 0 0 .00770399 56.809245 0)" xlink:href="#e"/><use transform="matrix(.00770399 0 0 .00770399 66.277452 0)" xlink:href="#m"/></g><use transform="translate(1001.716062 186.308218)" xlink:href="#al"/><use transform="translate(1077.461722 186.308218)" xlink:href="#p"/><use transform="translate(916.502195 202.085996)" xlink:href="#q"/><use transform="translate(1001.716062 202.085996)" xlink:href="#al"/><use transform="translate(1077.461722 202.085996)" xlink:href="#r"/><path d="m911.5 90.8c0-2.2 1.8-4 4-4h300.67c2.2 0 4 1.8 4 4v49.74c0 2.2-1.8 4-4 4h-300.67c-2.2 0-4-1.8-4-4z" fill="#fff" stroke="#666" stroke-width="2"/><g transform="translate(999.724743 119.424424)"><use transform="scale(.00770399)" xlink:href="#i"/><use transform="matrix(.00770399 0 0 .00770399 9.468207 0)" xlink:href="#c"/><use transform="matrix(.00770399 0 0 .00770399 18.936415 0)" xlink:href="#h"/><use transform="matrix(.00770399 0 0 .00770399 28.404622 0)" xlink:href="#f"/><use transform="matrix(.00770399 0 0 .00770399 37.87283 0)" xlink:href="#d"/><use transform="matrix(.00770399 0 0 .00770399 47.341037 0)" xlink:href="#e"/><use transform="matrix(.00770399 0 0 .00770399 56.809245 0)" xlink:href="#e"/></g><g transform="translate(1075.470402 119.424424)"><path d="m365-904c58-129 161-200 334-200 130 0 228 46 293 138s98 233 98 420c0 189-34 331-102 425s-164 141-290 141c-170 0-275-64-336-184 0 55-3 116-9 164h-174c5-68 6-147 6-223v-1261h180c-2 193 4 394-4 580zm283 791c221 0 256-197 256-427 0-229-34-425-254-425-236 0-285 195-285 441 0 237 53 411 283 411" transform="scale(.00770399)"/><use transform="matrix(.00770399 0 0 .00770399 9.468207 0)" xlink:href="#j"/><use transform="matrix(.00770399 0 0 .00770399 18.936415 0)" xlink:href="#n"/><use transform="matrix(.00770399 0 0 .00770399 28.404622 0)" xlink:href="#n"/><use transform="matrix(.00770399 0 0 .00770399 37.87283 0)" xlink:href="#d"/><use transform="matrix(.00770399 0 0 .00770399 47.341037 0)" xlink:href="#c"/></g><path d="m1120.33 168.54c0-2.2 1.8-4 4-4h82.34c2.2 0 4 1.8 4 4v12c0 2.2-1.8 4-4 4h-82.34c-2.2 0-4-1.8-4-4z" fill="#fff" stroke="#666" stroke-width="2"/><use transform="translate(1153.240741 176.646372)" xlink:href="#ak"/><path d="m914.67 243.63c0-3.3 2.7-6 6-6h284c3.3 0 6 2.7 6 6v24.73c0 3.32-2.7 6-6 6h-284c-3.3 0-6-2.68-6-6z" fill="none"/><g transform="translate(919.668862 262.098924)"><path d="m140-251c81 0 123 46 123 126 0 72-35 117-100 126 7 30 30 48 69 40v23c-55 16-95-15-103-61-73-6-112-51-112-128 0-80 42-126 123-126zm0 227c63 0 89-41 89-101s-29-99-89-99c-61 0-89 39-89 99s28 100 89 101" fill="#333" transform="scale(.0617284)"/><use transform="matrix(.0617284 0 0 .0617284 17.283951 0)" xlink:href="#Z"/><use transform="matrix(.0617284 0 0 .0617284 29.62963 0)" xlink:href="#ab"/><use transform="matrix(.0617284 0 0 .0617284 41.975309 0)" xlink:href="#ad"/><use transform="matrix(.0617284 0 0 .0617284 53.08642 0)" xlink:href="#aa"/><use transform="matrix(.0617284 0 0 .0617284 59.259259 0)" xlink:href="#V"/><use transform="matrix(.0617284 0 0 .0617284 64.135802 0)" xlink:href="#T"/><use transform="matrix(.0617284 0 0 .0617284 76.481481 0)" xlink:href="#W"/><use transform="matrix(.0617284 0 0 .0617284 88.82716 0)" xlink:href="#ad"/></g><path d="m914.67 282.9c0-2.22 1.8-4 4-4h305.33c2.2 0 4 1.78 4 4v120.04c0 2.2-1.8 4-4 4h-305.33c-2.2 0-4-1.8-4-4z" fill="#fff" stroke="#666" stroke-width="2"/><use transform="translate(919.668862 294.732072)" xlink:href="#an"/><use transform="translate(952.202195 294.732072)" xlink:href="#ao"/><use transform="translate(1010.152195 294.732072)" xlink:href="#ap"/><use transform="translate(919.668862 310.998738)" xlink:href="#ar"/><use transform="translate(994.826887 310.998738)" xlink:href="#ao"/><use transform="translate(1052.776887 310.998738)" xlink:href="#as"/><use transform="translate(919.668862 327.265405)" xlink:href="#at"/><path d="m923.33 337.7h296v26h-296z" fill="#fff" stroke="#5e5e5e"/><use transform="translate(928.333334 353.354294)" xlink:href="#aw"/><use transform="translate(960.333334 353.354294)" xlink:href="#ax"/><use transform="translate(988.62963 353.354294)" xlink:href="#ay"/><path d="m923.33 368.45h296v26h-296z" fill="#fff" stroke="#5e5e5e"/><use transform="translate(928.333334 384.12113)" xlink:href="#aw"/><use transform="translate(960.333334 384.12113)" xlink:href="#ax"/><use transform="translate(988.62963 384.12113)" xlink:href="#ay"/><path d="m914.67 428.54c0-2.2 1.8-4 4-4h305.33c2.2 0 4 1.8 4 4v120.04c0 2.2-1.8 4-4 4h-305.33c-2.2 0-4-1.8-4-4z" fill="#fff" stroke="#666" stroke-width="2"/><use transform="translate(919.668862 440.379705)" xlink:href="#an"/><use transform="translate(952.202195 440.379705)" xlink:href="#ao"/><use transform="translate(1010.152195 440.379705)" xlink:href="#ap"/><use transform="translate(919.668862 456.646372)" xlink:href="#ar"/><use transform="translate(994.826887 456.646372)" xlink:href="#ao"/><use transform="translate(1052.776887 456.646372)" xlink:href="#as"/><use transform="translate(919.668862 472.913038)" xlink:href="#at"/><path d="m923.33 483.34h296v26h-296z" fill="#fff" stroke="#5e5e5e"/><use transform="translate(928.333334 499.001927)" xlink:href="#aw"/><use transform="translate(960.333334 499.001927)" xlink:href="#ax"/><use transform="translate(988.62963 499.001927)" xlink:href="#ay"/><path d="m923.33 514.1h296v26h-296z" fill="#fff" stroke="#5e5e5e"/><use transform="translate(928.333334 529.768763)" xlink:href="#aw"/><use transform="translate(960.333334 529.768763)" xlink:href="#ax"/><use transform="translate(988.62963 529.768763)" xlink:href="#ay"/><path d="m515 564.54h240v60h-240z" fill="none"/><g transform="translate(580.682305 599.382483)"><use transform="scale(.04938272)" xlink:href="#X"/><use transform="matrix(.04938272 0 0 .04938272 11.851852 0)" xlink:href="#Y"/><use transform="matrix(.04938272 0 0 .04938272 20.740741 0)" xlink:href="#Y"/><use transform="matrix(.04938272 0 0 .04938272 29.62963 0)" xlink:href="#T"/><use transform="matrix(.04938272 0 0 .04938272 39.506173 0)" xlink:href="#Z"/><use transform="matrix(.04938272 0 0 .04938272 49.382716 0)" xlink:href="#W"/><use transform="matrix(.04938272 0 0 .04938272 59.259259 0)" xlink:href="#aa"/></g><use transform="translate(649.818107 599.382483)" xlink:href="#az"/><path d="m951.33 564.54h240v60h-240z" fill="none"/><g transform="translate(994.815913 599.382483)"><path d="m30-248c87 1 191-15 191 75 0 78-77 80-158 76v97h-33zm33 125c57 0 124 11 124-50 0-59-68-47-124-48z" fill="#333" transform="scale(.04938272)"/><use transform="matrix(.04938272 0 0 .04938272 11.851852 0)" xlink:href="#aA"/><use transform="matrix(.04938272 0 0 .04938272 17.728395 0)" xlink:href="#T"/><use transform="matrix(.04938272 0 0 .04938272 27.604938 0)" xlink:href="#Y"/><use transform="matrix(.04938272 0 0 .04938272 36.493827 0)" xlink:href="#ab"/><use transform="matrix(.04938272 0 0 .04938272 46.37037 0)" xlink:href="#ad"/><use transform="matrix(.04938272 0 0 .04938272 55.259259 0)" xlink:href="#ad"/></g><g transform="translate(1063.902332 599.382483)"><use transform="scale(.04938272)" xlink:href="#af"/><use transform="matrix(.04938272 0 0 .04938272 9.876543 0)" xlink:href="#aj"/><use transform="matrix(.04938272 0 0 .04938272 19.753086 0)" xlink:href="#U"/><use transform="matrix(.04938272 0 0 .04938272 29.62963 0)" xlink:href="#ab"/></g><use transform="translate(1108.346777 599.382483)" xlink:href="#az"/><path d="m620.33 230.6c0-2.2 1.8-4 4-4h172.34c2.2 0 4 1.8 4 4v21.85c0 2.2-1.8 4-4 4h-172.34c-2.2 0-4-1.8-4-4z" fill="#fff" stroke="#666" stroke-width="2"/><g transform="translate(645.796296 244.773562)"><path d="m212-179c-10-28-35-45-73-45-59 0-87 40-87 99 0 60 29 101 89 101 43 0 62-24 78-52l27 14c-18 38-51 66-107 66-80 0-117-50-121-129-6-104 99-153 187-111 19 9 31 26 39 46" fill="#333" transform="scale(.03703704)"/><use transform="matrix(.03703704 0 0 .03703704 9.592593 0)" xlink:href="#Z"/><use transform="matrix(.03703704 0 0 .03703704 17 0)" xlink:href="#aA"/><use transform="matrix(.03703704 0 0 .03703704 21.407407 0)" xlink:href="#aA"/><use transform="matrix(.03703704 0 0 .03703704 25.814815 0)" xlink:href="#ab"/><use transform="matrix(.03703704 0 0 .03703704 33.222222 0)" xlink:href="#W"/><use transform="matrix(.03703704 0 0 .03703704 40.62963 0)" xlink:href="#aa"/></g><g transform="translate(693.833333 244.773562)"><path d="m115-194c53 0 69 39 70 98 0 66-23 100-70 100-31-1-49-11-59-34l-2 30h-31l1-261h32v101c10-23 28-34 59-34zm-8 174c40 0 45-34 45-75 0-40-5-75-45-74-42 0-51 32-51 76 0 43 10 73 51 73" fill="#333" transform="scale(.03703704)"/><use transform="matrix(.03703704 0 0 .03703704 7.407407 0)" xlink:href="#av"/><use transform="matrix(.03703704 0 0 .03703704 10.333333 0)" xlink:href="#T"/><use transform="matrix(.03703704 0 0 .03703704 17.740741 0)" xlink:href="#Y"/><path d="m143 0-64-87-23 19v68h-32v-261h32v163l83-92h37l-77 82 82 108z" fill="#333" transform="matrix(.03703704 0 0 .03703704 24.407407 0)"/></g><g transform="translate(728.611111 244.773562)"><use transform="scale(.03703704)" xlink:href="#ag"/><use transform="matrix(.03703704 0 0 .03703704 11.074074 0)" xlink:href="#T"/><use transform="matrix(.03703704 0 0 .03703704 18.481481 0)" xlink:href="#ai"/><use transform="matrix(.03703704 0 0 .03703704 25.888889 0)" xlink:href="#V"/><path d="m101-234c-31-9-42 10-38 44h38v23h-38v167h-31v-167h-27v-23h27c-7-52 17-82 69-68z" fill="#333" transform="matrix(.03703704 0 0 .03703704 28.814815 0)"/><use transform="matrix(.03703704 0 0 .03703704 32.518519 0)" xlink:href="#V"/><use transform="matrix(.03703704 0 0 .03703704 35.444444 0)" xlink:href="#ab"/><use transform="matrix(.03703704 0 0 .03703704 42.851852 0)" xlink:href="#aA"/></g></g></svg>